<?xml version="1.0" encoding="utf-8"?>
<!-- Generator: Adobe Illustrator 21.0.0, SVG Export Plug-In . SVG Version: 6.00 Build 0)  -->
<svg version="1.1" id="Layer_1" xmlns="http://www.w3.org/2000/svg" xmlns:xlink="http://www.w3.org/1999/xlink" x="0px" y="0px"
	 viewBox="0 0 459 382" style="enable-background:new 0 0 459 382;" xml:space="preserve">
<style type="text/css">
	.st0{fill:#EDF3F4;}
	.st1{fill:#D9E6ED;}
	.st2{fill:#105D84;}
	.st3{fill:#E3F4FC;}
	.st4{fill:#BACBD5;}
	.st5{fill:#CEE6EF;}
	.st6{fill:#B5DAE5;}
	.st7{opacity:0.13;fill:#105D84;}
	.st8{fill:#DD1F4C;}
	.st9{fill:#FF3159;}
	.st10{fill:#FFFFFF;}
	.st11{fill:none;stroke:#105D84;stroke-width:2.1721;stroke-miterlimit:10;}
	.st12{fill:#E51C4C;}
	.st13{fill:#21ACBF;}
	.st14{fill:#1499A3;}
	.st15{fill:#26C5D1;}
	.st16{fill:#119FAA;}
	.st17{fill:#FF7F29;}
	.st18{fill:#FFAC27;}
	.st19{fill:#FF6D2C;}
	.st20{fill:#064963;}
	.st21{fill:#99B7C6;}
	.st22{opacity:0.4;fill:#FFFFFF;}
	.st23{fill:#FF542C;}
	.st24{fill:#FF5E2C;}
</style>
<g>
	<g>
		<path class="st0" d="M364,122.4c-22-11.9-42.3-26.6-59.7-44.5c-17.1-17.6-41.1-28.6-67.6-28.6c-24.5,0-46.8,9.4-63.6,24.7
			c-16.5,15.1-36.9,25.1-58.8,29.6c-32.3,6.6-73.2,27.5-73.2,89.8c0,39.9,28.9,76.1,65.2,89.3c21.2,7.7,41.1,18.9,59.1,32.5
			c15.8,12,35.5,19.2,56.9,19.2c18.9,0,36.4-5.6,51.2-15.1c18.7-12.1,39.1-21.6,60.8-26.7c42.2-9.8,88.8-48.7,88.8-89
			C423.2,168.3,393.7,138.5,364,122.4z"/>
		
			<ellipse transform="matrix(0.9164 -0.4003 0.4003 0.9164 -16.6548 57.3462)" class="st0" cx="128.9" cy="68.5" rx="33.8" ry="17.9"/>
		
			<ellipse transform="matrix(0.3649 -0.9311 0.9311 0.3649 148.3334 397.7079)" class="st0" cx="365.7" cy="90.1" rx="13.7" ry="25.9"/>
	</g>
	<g>
		<g>
			<g>
				<path class="st1" d="M111,271.1v26c0,5.6,4.5,10.1,10.1,10.1h243.8c5.6,0,10.1-4.5,10.1-10.1v-26H111z"/>
				<path class="st2" d="M375,134c0-5.6-4.5-10.1-10.1-10.1H121.1c-5.6,0-10.1,4.5-10.1,10.1v137h264V134z"/>
				<path class="st3" d="M120.6,261.4V134c0-0.3,0.2-0.5,0.5-0.5h243.8c0.3,0,0.5,0.2,0.5,0.5v127.4H120.6z"/>
				<path class="st1" d="M285.5,335.2L285.5,335.2c-5.8,0-10.6-4.7-10.6-10.6v-17.5h-63.8v17.5c0,5.8-4.7,10.6-10.6,10.6h0
					c-3,0-5.7,2.2-6,5.2c-0.3,3.4,2.4,6.3,5.7,6.3h85.4c3.4,0,6-2.9,5.7-6.3C291.1,337.4,288.5,335.2,285.5,335.2z"/>
				<rect x="211.1" y="307.2" class="st4" width="63.8" height="6.9"/>
			</g>
			<g>
				<g>
					<rect x="136.4" y="147.4" class="st5" width="59.4" height="54.6"/>
					<rect x="136.4" y="210.2" class="st6" width="59.4" height="11.8"/>
					<rect x="211.8" y="147.4" class="st5" width="59.4" height="54.6"/>
					<rect x="211.8" y="210.2" class="st6" width="59.4" height="11.8"/>
					<rect x="288" y="147.4" class="st5" width="59.4" height="54.6"/>
					<rect x="288" y="210.2" class="st6" width="59.4" height="11.8"/>
				</g>
				<rect x="137.9" y="231.5" class="st5" width="110.8" height="23.3"/>
				<rect x="263.4" y="231.5" class="st5" width="35.7" height="23.3"/>
				<rect x="313.8" y="231.5" class="st5" width="34.2" height="23.3"/>
			</g>
			<path class="st7" d="M111,152.8v24.3c3.5,1.6,7.3,2.6,11.4,2.6c8,0,15.2-3.6,20.1-9.2c4.9,5.7,12.1,9.2,20.1,9.2
				c8,0,15.2-3.6,20.1-9.2c4.9,5.7,12.1,9.2,20.1,9.2c8,0,15.2-3.6,20.1-9.2c4.9,5.7,12.1,9.2,20.1,9.2c8,0,15.2-3.6,20.1-9.2
				c4.9,5.6,12.1,9.2,20.1,9.2c8,0,15.2-3.6,20.1-9.2c4.9,5.7,12.1,9.2,20.1,9.2c8,0,15.2-3.6,20.1-9.2c4.9,5.7,12.1,9.2,20.1,9.2
				c4,0,7.8-0.9,11.2-2.5v-24.4H111z"/>
			<g>
				<path class="st8" d="M142.5,150.7h-40.2v2.4c0,11.1,9,20.1,20.1,20.1l0,0c11.1,0,20.1-9,20.1-20.1V150.7z"/>
				<path class="st3" d="M182.7,150.7h-40.2v2.4c0,11.1,9,20.1,20.1,20.1l0,0c11.1,0,20.1-9,20.1-20.1V150.7z"/>
				<path class="st8" d="M223,150.7h-40.2v2.4c0,11.1,9,20.1,20.1,20.1l0,0c11.1,0,20.1-9,20.1-20.1V150.7z"/>
				<path class="st3" d="M263.2,150.7H223v2.4c0,11.1,9,20.1,20.1,20.1l0,0c11.1,0,20.1-9,20.1-20.1V150.7z"/>
				<path class="st8" d="M303.4,150.7h-40.2v2.4c0,11.1,9,20.1,20.1,20.1l0,0c11.1,0,20.1-9,20.1-20.1V150.7z"/>
				<path class="st8" d="M383.9,150.7h-40.2v2.4c0,11.1,9,20.1,20.1,20.1h0c11.1,0,20.1-9,20.1-20.1V150.7z"/>
				<g>
					<polygon class="st9" points="120.7,133.4 102.3,150.7 142.5,150.7 155.7,133.4 					"/>
					<polygon class="st10" points="155.7,133.4 142.5,150.7 182.7,150.7 190.6,133.4 					"/>
					<polygon class="st9" points="190.6,133.4 182.7,150.7 223,150.7 225.6,133.4 					"/>
					<polygon class="st10" points="225.6,133.4 223,150.7 263.2,150.7 260.6,133.4 					"/>
					<polygon class="st9" points="260.6,133.4 263.2,150.7 303.4,150.7 295.5,133.4 					"/>
					<polygon class="st9" points="330.5,133.4 343.7,150.7 383.9,150.7 365.5,133.4 					"/>
					<polygon class="st10" points="295.5,133.4 303.4,150.7 343.7,150.7 330.5,133.4 					"/>
				</g>
				<path class="st3" d="M343.7,150.7h-40.2v2.4c0,11.1,9,20.1,20.1,20.1h0c11.1,0,20.1-9,20.1-20.1V150.7z"/>
			</g>
		</g>
		<g>
			<g>
				<path class="st11" d="M62.6,198.2c0,0-9.2-24.7-18.8-16.7c-6.2,5.2,7.7,12.6,13.6,15.5C59,197.8,60.8,198.2,62.6,198.2
					L62.6,198.2z"/>
				<path class="st11" d="M61.2,198.2c0,0,9.2-24.7,18.8-16.7c6.2,5.2-7.7,12.6-13.6,15.5C64.7,197.8,63,198.2,61.2,198.2
					L61.2,198.2z"/>
			</g>
			
				<rect x="88.7" y="189.7" transform="matrix(6.123234e-17 -1 1 6.123234e-17 -98.5787 331.9365)" class="st9" width="56" height="51.2"/>
			
				<rect x="88.7" y="189.7" transform="matrix(6.123234e-17 -1 1 6.123234e-17 -98.5787 331.9365)" class="st9" width="56" height="51.2"/>
			<g>
				<g>
					<path class="st9" d="M63,132.4l-7.2,7.2l-7.2,7.2c-1,1-1,2.7,0,3.7l17,17c1.4,1.4,3.4,1.8,5.3,1.2l9.1-3.3
						c0.8-0.3,1.3-0.9,1.6-1.6l3.3-9.1c0.7-1.8,0.2-3.9-1.2-5.3l-17-17C65.7,131.4,64.1,131.4,63,132.4z M79.5,163.3
						c-0.6,0.6-1.6,0.6-2.2,0c-0.6-0.6-0.6-1.6,0-2.2c0.6-0.6,1.6-0.6,2.2,0C80.2,161.6,80.2,162.6,79.5,163.3z"/>
					<g>
						<path class="st10" d="M64.3,149.8c0.9,0.9,1.3,1.7,1.4,2.4c0.1,0.8-0.2,1.5-0.8,2.1c-0.6,0.6-1.3,0.9-2.1,0.8
							c-0.8-0.1-1.6-0.6-2.4-1.4c-1.7-1.7-1.9-3.2-0.6-4.5c0.6-0.6,1.3-0.9,2.1-0.8C62.7,148.6,63.5,149,64.3,149.8z M61.8,152.3
							c0.5,0.5,0.9,0.8,1.2,0.9c0.3,0.1,0.6,0.1,0.8-0.1c0.4-0.4,0.1-1-0.9-1.9c-0.9-0.9-1.6-1.2-1.9-0.9c-0.2,0.2-0.2,0.4-0.1,0.7
							C61.1,151.4,61.4,151.8,61.8,152.3z M65.7,143.6l3.6,12.6l-1.3,1.3l-3.6-12.6L65.7,143.6z M73.2,147.4
							c0.8,0.8,1.3,1.7,1.4,2.4c0.1,0.8-0.2,1.5-0.8,2.1c-0.6,0.6-1.3,0.9-2.1,0.8c-0.8-0.1-1.6-0.6-2.4-1.4
							c-1.7-1.7-1.9-3.2-0.6-4.5c0.6-0.6,1.3-0.9,2.1-0.8C71.6,146.1,72.4,146.6,73.2,147.4z M70.8,149.9c0.5,0.5,0.9,0.8,1.2,0.9
							c0.3,0.1,0.6,0.1,0.8-0.1c0.4-0.4,0.1-1-0.9-1.9c-0.9-0.9-1.6-1.2-1.9-0.9c-0.2,0.2-0.2,0.4-0.1,0.7
							C70,149,70.3,149.4,70.8,149.9z"/>
					</g>
				</g>
				<path class="st2" d="M93.8,172.1c2.5,1.2,4.5,3.6,6,7.2c1.1,2.7,1.8,5.4,2,8h0.8c-0.2-2.7-0.8-5.6-2-8.4
					c-1.6-3.7-3.8-6.3-6.4-7.6c-1.1-0.5-2.4-0.9-3.9-1c-0.3-1-0.8-1.9-1.7-3c-2.5-3-6.7-5.3-10.5-5.6c-0.2,0-0.4,0.1-0.4,0.4
					c0,0.2,0.1,0.4,0.4,0.4c3.5,0.3,7.5,2.5,9.9,5.3c0.7,0.8,1.2,1.6,1.4,2.4c-0.6,0-1.3,0-2,0c-0.6,0-1.4,0.1-2,0.5
					c-0.8,0.4-1.2,1.1-1.3,1.8c0,0.6,0.3,1.2,0.8,1.6c1.2,1.2,3.3,1.1,4.5-0.1c0.7-0.7,1.1-1.9,1-3
					C91.7,171.3,92.8,171.6,93.8,172.1z M88.9,173.6c-0.9,0.9-2.5,0.9-3.4,0.1c-0.3-0.3-0.5-0.7-0.5-1c0-0.4,0.3-0.9,0.8-1.1
					c0.5-0.3,1.1-0.3,1.7-0.4c0.5,0,0.9-0.1,1.4-0.1c0.3,0,0.5,0,0.8,0C89.7,172.1,89.5,173,88.9,173.6z"/>
			</g>
			<rect x="135.1" y="187.2" class="st8" width="7.2" height="56"/>
			
				<rect x="113" y="214" transform="matrix(6.123234e-17 -1 1 6.123234e-17 -122.8939 356.2517)" class="st12" width="7.4" height="51.2"/>
			
				<rect x="97.1" y="211.6" transform="matrix(6.123234e-17 -1 1 6.123234e-17 -90.1037 340.4114)" class="st13" width="56" height="7.3"/>
			<rect x="121.5" y="235.9" class="st14" width="7.3" height="7.4"/>
			<g>
				<rect x="35.9" y="235.3" class="st13" width="77.3" height="56.2"/>
				<rect x="35.9" y="235.3" class="st15" width="5.1" height="56.2"/>
				<rect x="91.5" y="235.3" class="st16" width="21.8" height="56.2"/>
				<rect x="84.5" y="279.5" class="st10" width="14" height="7"/>
			</g>
			<rect x="40.8" y="198.2" class="st17" width="71.7" height="37.2"/>
			<rect x="40.8" y="198.2" class="st18" width="3.5" height="37.2"/>
			<rect x="59.9" y="198.2" class="st2" width="3.8" height="37.2"/>
			<rect x="40.8" y="207.6" class="st2" width="71.7" height="3.8"/>
			<rect x="40.8" y="228.4" class="st19" width="71.7" height="7"/>
			
				<rect x="108.6" y="248.1" transform="matrix(6.123234e-17 -1 1 6.123234e-17 -134.7523 400.1494)" class="st17" width="48.1" height="38.7"/>
			<rect x="113.3" y="243.4" class="st18" width="3.5" height="48.1"/>
			<rect x="143.1" y="243.4" class="st19" width="8.9" height="48.1"/>
			<rect x="59.9" y="228.4" class="st20" width="3.8" height="7"/>
			<rect x="59.9" y="228.4" class="st20" width="3.8" height="7"/>
			<g>
				<g>
					<g>
						<circle class="st2" cx="115.1" cy="339.3" r="12.8"/>
						<circle class="st17" cx="115.1" cy="339.3" r="7"/>
						<path class="st4" d="M115.1,343.7L115.1,343.7c-2.2,0-4-1.8-4-4v-18.5h8.1v18.5C119.2,341.8,117.4,343.7,115.1,343.7z"/>
					</g>
					<rect x="111.1" y="321.1" class="st21" width="8.1" height="2.8"/>
				</g>
				<g>
					<g>
						<circle class="st2" cx="54.2" cy="339.3" r="12.8"/>
						<circle class="st17" cx="54.2" cy="339.3" r="7"/>
						<path class="st4" d="M54.2,343.7L54.2,343.7c-2.2,0-4-1.8-4-4v-18.5h8.1v18.5C58.3,341.8,56.5,343.7,54.2,343.7z"/>
					</g>
					<rect x="50.2" y="321.1" class="st21" width="8.1" height="2.8"/>
				</g>
				<path class="st4" d="M176.9,205.3c-5.8,0-10.7,4.1-11.8,9.8H15.1l9.6,61c1.7,10.8,11,18.8,22,18.8h99.3c3.3,0,5.9,3,5.3,6.3l0,0
					c-0.1,0.7-0.3,1.4-0.4,2.1c-2.5,9.4-11,15.9-20.7,15.9H28.2c-1,0-1.8,0.8-1.8,1.8c0,1,0.8,1.8,1.8,1.8h102.1
					c11.3,0,21.3-7.7,24.2-18.6c0.2-0.8,0.4-1.6,0.5-2.5l13.4-84.5l0.2-1.2c0.7-4.1,4.2-7.1,8.3-7.1h40.4v-3.6H176.9z M27.8,272.2
					l-2.5-16h24.4l1.1,16H27.8z M49.4,252.6H24.7l-2.4-15.1h26.1L49.4,252.6z M50.6,218.7H76l0.4,15.2H51.7L50.6,218.7z
					 M159.1,252.6h-24.1l1-15.1h25.4L159.1,252.6z M107.7,252.6l0.3-15.1h24.5l-1,15.1H107.7z M131.2,256.2l-1.1,16h-22.9l0.4-16
					H131.2z M108.1,233.9l0.4-15.2h25.4l-1.1,15.2H108.1z M80.3,252.6L80,237.5h24.5l-0.3,15.1H80.3z M104,256.2l-0.4,16H80.8
					l-0.4-16H104z M79.9,233.9l-0.4-15.2h25.4l-0.4,15.2H79.9z M77.2,272.2H54.3l-1.1-16h23.6L77.2,272.2z M76.4,237.5l0.3,15.1H53
					l-1-15.1H76.4z M54.6,275.8h22.7l0.4,15.6h-22L54.6,275.8z M80.9,275.8h22.7l-0.4,15.6h-22L80.9,275.8z M107.2,275.8h22.7
					l-1.1,15.6h-22L107.2,275.8z M133.5,275.8h22l-2.5,15.6h-20.6L133.5,275.8z M133.7,272.2l1.1-16h23.7l-2.5,16H133.7z
					 M162.1,233.9h-25.7l1.1-15.2h27.1L162.1,233.9z M47,218.7l1.1,15.2H21.7l-2.4-15.2H47z M28.3,275.8H51l1.1,15.6h-5.3
					C37.6,291.4,29.8,284.8,28.3,275.8z"/>
				<path class="st2" d="M215.5,201.4h-31c-1.2,0-2.2,1-2.2,2.2v7.6c0,1.2,1,2.2,2.2,2.2h31c3.3,0,6-2.7,6-6l0,0
					C221.4,204,218.8,201.4,215.5,201.4z"/>
				<path class="st2" d="M188.1,211.1v-7.6c0-1.2,1-2.2,2.2-2.2h-5.8c-1.2,0-2.2,1-2.2,2.2v7.6c0,1.2,1,2.2,2.2,2.2h5.8
					C189,213.3,188.1,212.3,188.1,211.1z"/>
			</g>
		</g>
		<g>
			<g>
				<path class="st18" d="M360.7,349.8h-52c-1.9,0-3.4-1.5-3.4-3.4V340c0-1.9,1.5-3.4,3.4-3.4h52c1.9,0,3.4,1.5,3.4,3.4v6.3
					C364.2,348.2,362.7,349.8,360.7,349.8z"/>
				<path class="st17" d="M307.6,336.8c-1.3,0.5-2.2,1.7-2.2,3.2v6.3c0,1.5,0.9,2.7,2.2,3.2V336.8z"/>
				<rect x="315" y="336.6" class="st22" width="16.1" height="13.2"/>
				<path class="st17" d="M360.7,336.6h-4.7v13.2h4.7c1.9,0,3.4-1.5,3.4-3.4V340C364.2,338.1,362.7,336.6,360.7,336.6z"/>
			</g>
			<g>
				<path class="st18" d="M362.6,336.6h-52c-1.9,0-3.4-1.5-3.4-3.4v-6.3c0-1.9,1.5-3.4,3.4-3.4h52c1.9,0,3.4,1.5,3.4,3.4v6.3
					C366,335.1,364.5,336.6,362.6,336.6z"/>
				<path class="st17" d="M309.4,323.6c-1.3,0.5-2.2,1.7-2.2,3.2v6.3c0,1.5,0.9,2.7,2.2,3.2V323.6z"/>
				<rect x="316.9" y="323.4" class="st22" width="16.1" height="13.2"/>
				<path class="st17" d="M362.6,323.4h-4.7v13.2h4.7c1.9,0,3.4-1.5,3.4-3.4v-6.3C366,325,364.5,323.4,362.6,323.4z"/>
			</g>
			<g>
				<path class="st18" d="M360.6,323.4h-52c-1.9,0-3.4-1.5-3.4-3.4v-6.3c0-1.9,1.5-3.4,3.4-3.4h52c1.9,0,3.4,1.5,3.4,3.4v6.3
					C364.1,321.8,362.6,323.4,360.6,323.4z"/>
				<path class="st17" d="M307.5,310.4c-1.3,0.5-2.2,1.7-2.2,3.2v6.3c0,1.5,0.9,2.7,2.2,3.2V310.4z"/>
				<rect x="314.9" y="310.2" class="st22" width="16.1" height="13.2"/>
				<path class="st17" d="M360.6,310.2H356v13.2h4.7c1.9,0,3.4-1.5,3.4-3.4v-6.3C364.1,311.7,362.6,310.2,360.6,310.2z"/>
			</g>
			<g>
				<path class="st18" d="M360.6,310.1h-52c-1.9,0-3.4-1.5-3.4-3.4v-6.3c0-1.9,1.5-3.4,3.4-3.4h52c1.9,0,3.4,1.5,3.4,3.4v6.3
					C364.1,308.6,362.6,310.1,360.6,310.1z"/>
				<path class="st17" d="M307.5,297.2c-1.3,0.5-2.2,1.7-2.2,3.2v6.3c0,1.5,0.9,2.7,2.2,3.2V297.2z"/>
				<rect x="314.9" y="297" class="st22" width="16.1" height="13.2"/>
				<path class="st17" d="M360.6,297H356v13.2h4.7c1.9,0,3.4-1.5,3.4-3.4v-6.3C364.1,298.5,362.6,297,360.6,297z"/>
				<path class="st23" d="M305.5,308.1c0.5,1.2,1.7,2,3.1,2h52c1.4,0,2.6-0.8,3.1-2H305.5z"/>
			</g>
			<g>
				<path class="st18" d="M364.7,296.9h-52c-1.9,0-3.4-1.5-3.4-3.4v-6.3c0-1.9,1.5-3.4,3.4-3.4h52c1.9,0,3.4,1.5,3.4,3.4v6.3
					C368.1,295.4,366.6,296.9,364.7,296.9z"/>
				<path class="st17" d="M311.5,284c-1.3,0.5-2.2,1.7-2.2,3.2v6.3c0,1.5,0.9,2.7,2.2,3.2V284z"/>
				<rect x="318.9" y="283.7" class="st22" width="16.1" height="13.2"/>
				<path class="st17" d="M364.7,283.7H360v13.2h4.7c1.9,0,3.4-1.5,3.4-3.4v-6.3C368.1,285.3,366.6,283.7,364.7,283.7z"/>
				<path class="st23" d="M309.5,294.9c0.5,1.2,1.7,2,3.1,2h52c1.4,0,2.6-0.8,3.1-2H309.5z"/>
			</g>
			<path class="st23" d="M307.6,334.7c0.6,1.1,1.7,1.9,3.1,1.9h52c1.3,0,2.5-0.8,3.1-1.9H307.6z"/>
			<path class="st23" d="M305.6,321.5c0.6,1.1,1.7,1.9,3.1,1.9h52c1.3,0,2.5-0.8,3.1-1.9H305.6z"/>
			<g>
				<circle class="st18" cx="386" cy="324.8" r="24.9"/>
				<circle class="st17" cx="386" cy="324.8" r="19.6"/>
				<path class="st24" d="M386,305.3c-0.7,0-1.4,0-2.1,0.1c9.8,1.1,17.4,9.4,17.4,19.4c0,10.1-7.6,18.4-17.4,19.4
					c0.7,0.1,1.4,0.1,2.1,0.1c10.8,0,19.6-8.8,19.6-19.6C405.5,314,396.8,305.3,386,305.3z"/>
			</g>
		</g>
		<g>
			<g>
				<path class="st13" d="M418.9,190.1h-95.5c-3.3,0-6,2.7-6,6v46.6c0,3.3,2.7,6,6,6h95.5c3.3,0,6-2.7,6-6v-46.6
					C424.9,192.8,422.2,190.1,418.9,190.1z"/>
				<path class="st15" d="M327.9,190.1h-4.5c-3.3,0-6,2.7-6,6v46.6c0,3.3,2.7,6,6,6h4.5V190.1z"/>
				<path class="st16" d="M418.9,190.1h-12.6v58.6h12.6c3.3,0,6-2.7,6-6v-46.6C424.9,192.8,422.2,190.1,418.9,190.1z"/>
			</g>
			<g>
				<rect x="317.4" y="202.2" class="st2" width="107.5" height="6.8"/>
				<path class="st2" d="M335.9,228.2h-8.6c-1,0-1.8,0.8-1.8,1.8l0,0c0,1,0.8,1.8,1.8,1.8h8.6c1,0,1.8-0.8,1.8-1.8l0,0
					C337.6,229,336.8,228.2,335.9,228.2z"/>
				<path class="st2" d="M341.2,236.6h-13.9c-1,0-1.8,0.8-1.8,1.8l0,0c0,1,0.8,1.8,1.8,1.8h13.9c1,0,1.8-0.8,1.8-1.8l0,0
					C342.9,237.4,342.1,236.6,341.2,236.6z"/>
				<path class="st10" d="M364.1,236.6h-7c-1,0-1.8,0.8-1.8,1.8l0,0c0,1,0.8,1.8,1.8,1.8h7c1,0,1.8-0.8,1.8-1.8l0,0
					C365.8,237.4,365.1,236.6,364.1,236.6z"/>
				<path class="st10" d="M384.3,236.6h-7c-1,0-1.8,0.8-1.8,1.8l0,0c0,1,0.8,1.8,1.8,1.8h7c1,0,1.8-0.8,1.8-1.8l0,0
					C386.1,237.4,385.3,236.6,384.3,236.6z"/>
				<rect x="395.8" y="229.8" class="st18" width="22.3" height="10.1"/>
				<path class="st18" d="M335.1,214.3h-8.4c-0.8,0-1.4,0.6-1.4,1.4v2.7c0,0.8,0.6,1.4,1.4,1.4h8.4c0.8,0,1.4-0.6,1.4-1.4v-2.7
					C336.4,214.9,335.8,214.3,335.1,214.3z"/>
			</g>
		</g>
		<g>
			<polygon class="st2" points="242.1,158.4 194.9,106 195.5,105.4 241.2,156.2 241.2,105.2 242.1,105.2 			"/>
			<path class="st17" d="M195.2,107.5C195.2,107.5,195.2,107.5,195.2,107.5L195.2,107.5L195.2,107.5z"/>
			<path class="st17" d="M218.3,107.5C218.3,107.5,218.3,107.5,218.3,107.5C218.3,107.5,218.3,107.5,218.3,107.5L218.3,107.5z"/>
			<path class="st17" d="M241.5,107.5C241.5,107.5,241.5,107.5,241.5,107.5C241.5,107.5,241.5,107.5,241.5,107.5L241.5,107.5z"/>
			<path class="st17" d="M264.7,107.5C264.7,107.5,264.7,107.5,264.7,107.5C264.7,107.5,264.7,107.5,264.7,107.5L264.7,107.5z"/>
			
				<rect x="228.6" y="99.9" transform="matrix(0.9081 -0.4188 0.4188 0.9081 -33.3819 107.8713)" class="st2" width="0.9" height="60.1"/>
			<g>
				<polygon class="st2" points="241.8,157.6 241.1,157 287.6,105.4 288.2,106 				"/>
				<polygon class="st2" points="241.8,157.5 241,157.1 266.3,102.5 267.1,102.9 				"/>
			</g>
			<rect x="219.1" y="156.1" class="st17" width="46.6" height="38.2"/>
			<rect x="219.1" y="156.1" class="st22" width="3.3" height="38.2"/>
			<rect x="257.9" y="156.1" class="st19" width="7.8" height="38.2"/>
			<rect x="238.3" y="156.1" class="st9" width="8.1" height="38.2"/>
			<g>
				<path class="st13" d="M287.9,107.9C287.9,107.9,287.9,107.8,287.9,107.9c0-2.8-5.2-5.1-11.6-5.1c-6.4,0-11.6,2.2-11.6,5
					c0-2.8-5.2-5-11.6-5s-11.6,2.2-11.6,5c0-2.8-5.2-5-11.6-5s-11.6,2.2-11.6,5c0-2.8-5.2-5-11.6-5c-6.4,0-11.5,2.2-11.6,4.9
					c0.1-15.1,20.8-36,46.4-36C267.1,71.7,287.9,92.8,287.9,107.9L287.9,107.9z"/>
				<path class="st16" d="M241.5,71.7c26.1,11.9,24.2,30.9,23.4,35.2c1-2.3,5.7-4.1,11.4-4.1c6.4,0,11.6,2.2,11.6,5c0,0,0,0.1,0,0.1
					h0C287.9,92.8,267.1,71.7,241.5,71.7z"/>
				<path class="st15" d="M241.5,71.7c-25.5,0-46.2,20.9-46.4,36c0-2.2,3.3-4,7.7-4.6C206.5,93.9,216.2,77.7,241.5,71.7z"/>
			</g>
		</g>
		<g>
			<polygon class="st2" points="326.5,82.1 288.2,39.5 288.7,39 325.8,80.3 325.8,38.9 326.5,38.9 			"/>
			<path class="st17" d="M288.4,40.7C288.4,40.7,288.4,40.7,288.4,40.7L288.4,40.7L288.4,40.7z"/>
			<path class="st17" d="M307.2,40.8C307.2,40.7,307.2,40.7,307.2,40.8C307.2,40.7,307.2,40.7,307.2,40.8L307.2,40.8z"/>
			<path class="st17" d="M326,40.8C326.1,40.7,326.1,40.7,326,40.8C326.1,40.7,326.1,40.7,326,40.8L326,40.8z"/>
			<path class="st17" d="M344.9,40.8C344.9,40.7,344.9,40.7,344.9,40.8C344.9,40.7,344.9,40.7,344.9,40.8L344.9,40.8z"/>
			
				<rect x="315.6" y="34.6" transform="matrix(0.9081 -0.4188 0.4188 0.9081 4.3226 137.7291)" class="st2" width="0.7" height="48.9"/>
			<g>
				
					<rect x="316.7" y="59.9" transform="matrix(0.6697 -0.7427 0.7427 0.6697 69.188 276.0144)" class="st2" width="56.4" height="0.7"/>
				<polygon class="st2" points="326.3,81.4 325.7,81.1 346.2,36.7 346.8,37 				"/>
			</g>
			<rect x="307.9" y="80.2" class="st9" width="37.8" height="31.1"/>
			<rect x="307.9" y="80.2" class="st8" width="2.7" height="31.1"/>
			<rect x="339.4" y="80.2" class="st8" width="6.3" height="31.1"/>
			<rect x="323.5" y="80.2" class="st13" width="6.5" height="31.1"/>
			<g>
				<path class="st13" d="M363.7,41.1C363.7,41.1,363.7,41,363.7,41.1c0-2.3-4.2-4.1-9.4-4.1c-5.2,0-9.4,1.8-9.4,4.1
					c0-2.2-4.2-4.1-9.4-4.1c-5.2,0-9.4,1.8-9.4,4.1c0-2.2-4.2-4.1-9.4-4.1c-5.2,0-9.4,1.8-9.4,4.1c0-2.2-4.2-4.1-9.4-4.1
					c-5.2,0-9.4,1.8-9.4,4c0.1-12.3,16.9-29.3,37.7-29.3C346.9,11.7,363.7,28.8,363.7,41.1L363.7,41.1z"/>
				<path class="st16" d="M326.1,11.7c21.2,9.7,19.6,25.1,19,28.6c0.8-1.9,4.6-3.3,9.3-3.3c5.2,0,9.4,1.8,9.4,4.1c0,0,0,0,0,0.1h0
					C363.7,28.8,346.9,11.7,326.1,11.7z"/>
				<path class="st15" d="M326.1,11.7c-20.7,0-37.6,17-37.7,29.3c0-1.7,2.7-3.2,6.3-3.8C297.6,29.7,305.5,16.5,326.1,11.7z"/>
			</g>
		</g>
	</g>
</g>
</svg>
